<svg id="aa9021a2-d71f-4a46-9dc1-2da0c34f2113" data-name="Layer 1" xmlns="http://www.w3.org/2000/svg" viewBox="0 0 199.96 553.77"><path d="M612,615c-24.24,1.75-48.49,5.49-72.85,4.07a122.6,122.6,0,0,1-64.4-22.24A128,128,0,0,1,434.5,550c-10.19-20.29-14.61-43-15-65.56-.42-22.79,3-45.5,8.45-67.58,5.87-23.83,14.39-46.86,22.37-70,8.27-24,16-48.27,19.61-73.43,3.43-24,3.51-49.41-4.07-72.7-3.85-11.84-9.26-23.11-13.39-34.86a66.06,66.06,0,0,1-3.12-33.38,72.78,72.78,0,0,1,35.87-50.68,78,78,0,0,1,13.93-6.24c3-1,1.73-5.86-1.33-4.83-20.12,6.81-37.6,21.09-46.84,40.39a75.66,75.66,0,0,0-7.56,32.43c0,12.13,3.81,23.13,8.25,34.25,4.66,11.65,9.71,23.12,12.34,35.44a154.32,154.32,0,0,1,2.95,39c-1.13,26-7.7,51.37-15.67,76S433.81,377,426.7,402c-6.38,22.34-10.93,45.36-12,68.61-1.08,22.93,1.38,46.32,9.42,67.93a133.31,133.31,0,0,0,35.74,52.71c16.8,15.09,37.38,26,59.61,30.38,24.35,4.75,49.21,2.28,73.67,0,6.29-.59,12.58-1.16,18.88-1.62,3.19-.23,3.22-5.23,0-5Z" transform="translate(-414.44 -70.53)" style="fill:#231f20"/></svg>