<svg id="a5ddf973-a4cf-4099-b23c-aeea646ffe37" data-name="Layer 1" xmlns="http://www.w3.org/2000/svg" viewBox="0 0 199.99 506.75"><path d="M612,615c-22.34,1.61-44.64,4.89-67.09,4.31-21.64-.57-42.44-5.6-61.17-16.66a128.43,128.43,0,0,1-41.62-39.48C431,546.26,424.22,526.93,421.27,507c-6.21-41.79,3.46-84.38,16.53-123.93,14.55-44,33.23-87.79,34.26-134.84a159.12,159.12,0,0,0-2.7-33.61,147.52,147.52,0,0,0-8.36-27c-6.73-16.82-15.89-35.08-13.9-53.72a37.57,37.57,0,0,1,3.64-12.53c1.4-2.88-2.91-5.42-4.32-2.52-8.46,17.33-3.39,36.42,3.11,53.5,3.45,9.06,7.43,17.92,10.62,27.09A128,128,0,0,1,466.58,231c3.91,48.08-14.11,94-29.47,138.55-14,40.72-25.62,83.51-22,127,1.7,20.58,6.95,40.87,16.74,59.12a133.41,133.41,0,0,0,37.75,43.53,124.11,124.11,0,0,0,57.67,23.7c22.6,3.07,45.4.62,68-1.48,5.6-.52,11.19-1,16.8-1.43,3.19-.22,3.22-5.23,0-5Z" transform="translate(-414.42 -117.56)" style="fill:#231f20"/></svg>